<svg width="72" height="63" viewBox="0 0 72 63" fill="none" xmlns="http://www.w3.org/2000/svg">
<path fill-rule="evenodd" clip-rule="evenodd" d="M67.5 9H4.5C3.30653 9 2.16193 8.52589 1.31802 7.68198C0.474107 6.83807 0 5.69347 0 4.5C0 3.30653 0.474107 2.16193 1.31802 1.31802C2.16193 0.474107 3.30653 0 4.5 0H67.5C68.6935 0 69.8381 0.474107 70.682 1.31802C71.5259 2.16193 72 3.30653 72 4.5C72 5.69347 71.5259 6.83807 70.682 7.68198C69.8381 8.52589 68.6935 9 67.5 9ZM49.5 27H4.5C3.30653 27 2.16193 26.5259 1.31802 25.682C0.474107 24.8381 0 23.6935 0 22.5C0 21.3065 0.474107 20.1619 1.31802 19.318C2.16193 18.4741 3.30653 18 4.5 18H49.5C50.6935 18 51.8381 18.4741 52.682 19.318C53.5259 20.1619 54 21.3065 54 22.5C54 23.6935 53.5259 24.8381 52.682 25.682C51.8381 26.5259 50.6935 27 49.5 27ZM67.5 45H4.5C3.30653 45 2.16193 44.5259 1.31802 43.682C0.474107 42.8381 0 41.6935 0 40.5C0 39.3065 0.474107 38.1619 1.31802 37.318C2.16193 36.4741 3.30653 36 4.5 36H67.5C68.6935 36 69.8381 36.4741 70.682 37.318C71.5259 38.1619 72 39.3065 72 40.5C72 41.6935 71.5259 42.8381 70.682 43.682C69.8381 44.5259 68.6935 45 67.5 45ZM49.5 63H4.5C3.30653 63 2.16193 62.5259 1.31802 61.682C0.474107 60.8381 0 59.6935 0 58.5C0 57.3065 0.474107 56.1619 1.31802 55.318C2.16193 54.4741 3.30653 54 4.5 54H49.5C50.6935 54 51.8381 54.4741 52.682 55.318C53.5259 56.1619 54 57.3065 54 58.5C54 59.6935 53.5259 60.8381 52.682 61.682C51.8381 62.5259 50.6935 63 49.5 63Z" fill="white"/>
</svg>
