<svg width="67" height="67" viewBox="0 0 67 67" fill="none" xmlns="http://www.w3.org/2000/svg">
<path d="M65.74 62.5916L56 52.9116V15.6716L51.4 7.21163C51.0607 6.56663 50.5516 6.0266 49.9277 5.64986C49.3038 5.27312 48.5889 5.074 47.86 5.074C47.1312 5.074 46.4163 5.27312 45.7924 5.64986C45.1685 6.0266 44.6594 6.56663 44.32 7.21163L40 15.6916V36.9916L3.42003 0.591632C3.14029 0.309573 2.78289 0.117212 2.3934 0.0390726C2.0039 -0.0390668 1.59996 0.000556231 1.23307 0.15289C0.866183 0.305223 0.552971 0.563366 0.333369 0.894405C0.113767 1.22544 -0.00227636 1.61438 3.38339e-05 2.01163V18.1716H4.34003V21.3716H3.38339e-05V34.1716H4.34003V37.3716H3.38339e-05V50.6716H4.34003V53.8716H3.38339e-05V64.0116C3.38339e-05 64.5421 0.210747 65.0508 0.58582 65.4258C0.960893 65.8009 1.4696 66.0116 2.00003 66.0116H64.32C64.7173 66.0139 65.1062 65.8979 65.4373 65.6783C65.7683 65.4587 66.0264 65.1455 66.1788 64.7786C66.3311 64.4117 66.3707 64.0078 66.2926 63.6183C66.2144 63.2288 66.0221 62.8714 65.74 62.5916ZM16 50.1716V32.0516L34.14 50.1716H16ZM52 54.3916H44V49.5316H52V54.3916ZM52 46.3916H44V16.6716L47.88 9.13163L52 16.6916V46.3916Z" fill="white"/>
</svg>
