<svg width="73" height="72" viewBox="0 0 73 72" fill="none" xmlns="http://www.w3.org/2000/svg">
<path d="M71.9537 65.8414L66.8419 70.9532C66.1674 71.6237 65.2551 72 64.304 72C63.353 72 62.4406 71.6237 61.7661 70.9532L18.9998 28.2589C17.8292 28.598 16.6186 28.7796 15.4 28.7989C13.1079 28.7972 10.8494 28.2485 8.81219 27.1982C6.77495 26.148 5.01785 24.6266 3.68697 22.7606C2.35609 20.8945 1.4899 18.7377 1.16039 16.4695C0.830887 14.2013 1.0476 11.8872 1.7925 9.71961L10.9361 18.8633L12.8441 16.9553L17.9559 11.8435L19.8638 9.93561L10.7201 0.791969C12.8877 0.0470619 15.2018 -0.169648 17.4701 0.159857C19.7383 0.489361 21.895 1.35556 23.7611 2.68644C25.6271 4.01731 27.1485 5.77441 28.1988 7.81165C29.249 9.84889 29.7978 12.1074 29.7994 14.3994C29.7801 15.618 29.5985 16.8287 29.2594 17.9993L71.9537 60.7656C72.6242 61.4401 73.0005 62.3525 73.0005 63.3035C73.0005 64.2545 72.6242 65.1669 71.9537 65.8414V65.8414ZM2.04449 60.7656C1.37402 61.4401 0.997681 62.3525 0.997681 63.3035C0.997681 64.2545 1.37402 65.1669 2.04449 65.8414L7.15629 70.9532C7.83077 71.6237 8.74316 72 9.69419 72C10.6452 72 11.5576 71.6237 12.2321 70.9532L31.9233 51.298L21.7357 41.1104L2.04449 60.7656ZM65.798 0L51.3985 7.19971V14.3994L43.5868 22.2111L50.7866 29.4108L58.5983 21.5991H65.798L72.9977 7.19971L65.798 0Z" fill="white"/>
</svg>
